<?xml version="1.0" standalone="no"?>
<!DOCTYPE svg PUBLIC "-//W3C//DTD SVG 20010904//EN"
 "http://www.w3.org/TR/2001/REC-SVG-20010904/DTD/svg10.dtd">
<svg version="1.0" xmlns="http://www.w3.org/2000/svg"
 width="96px" height="96px" viewBox="0 0 1024.000000 1024.000000"
 preserveAspectRatio="xMidYMid meet">

<g transform="translate(0.000000,1024.000000) scale(0.100000,-0.100000)"
fill="#000000" stroke="none">
<path d="M2979 7989 c-9 -17 -7 -26 8 -48 11 -14 91 -125 178 -246 170 -236
292 -405 500 -690 140 -192 247 -342 259 -362 9 -17 -760 -1092 -790 -1103
-44 -17 -57 -71 -25 -111 24 -32 94 -413 85 -468 -5 -31 -2 -43 15 -60 12 -12
30 -21 41 -21 38 0 315 -83 339 -102 31 -24 76 -23 101 2 21 21 121 41 218 42
69 1 107 28 98 70 -7 35 121 377 144 386 8 3 22 11 30 17 10 9 83 15 221 20
185 6 212 5 258 -11 49 -18 51 -18 78 2 15 12 33 34 38 50 10 29 45 64 134
135 29 23 51 35 51 27 0 -20 -36 -154 -45 -169 -5 -8 -170 -257 -368 -554
-329 -494 -363 -540 -391 -546 -42 -7 -53 -15 -72 -50 -17 -34 -12 -80 13
-105 15 -14 14 -25 -6 -122 -74 -361 -83 -397 -106 -417 -12 -11 -25 -28 -28
-38 -10 -28 11 -68 41 -79 15 -6 77 -67 137 -136 151 -171 155 -148 -73 -369
-122 -119 -184 -172 -200 -173 -34 0 -69 -27 -81 -62 -9 -26 -8 -39 9 -73 17
-35 20 -62 20 -168 0 -73 -4 -128 -10 -132 -12 -7 -13 -55 -1 -73 6 -11 255
-13 1327 -15 725 -1 1329 -6 1341 -11 17 -6 27 -2 47 18 29 28 33 57 11 80
-12 11 -15 41 -15 136 0 107 2 125 20 147 43 54 8 143 -55 143 -21 0 -65 36
-196 163 -165 158 -169 163 -169 204 0 40 3 45 141 175 77 73 152 136 167 140
52 14 70 80 33 115 -18 17 -18 23 -5 128 8 61 21 169 29 240 21 176 22 183 54
199 24 13 43 9 230 -45 112 -33 211 -64 221 -69 32 -17 75 -11 98 13 25 26 27
47 11 92 -9 24 -7 104 10 350 12 176 25 369 28 428 6 103 7 109 34 128 32 23
53 76 43 113 -3 15 -21 39 -39 54 l-33 27 -30 359 -31 359 24 19 c31 24 45 74
32 111 -11 33 -52 67 -81 67 -15 0 -40 22 -78 68 -30 37 -150 179 -266 316
-125 148 -208 254 -205 263 15 38 -44 103 -94 103 -10 0 -56 34 -103 76 -226
202 -269 245 -275 273 -8 36 -42 69 -80 77 -22 4 -40 -1 -68 -20 -34 -23 -56
-27 -208 -41 -94 -9 -174 -13 -177 -10 -10 10 -29 186 -20 191 15 10 8 71 -10
87 -22 20 -73 22 -90 5 -8 -8 -119 -26 -280 -45 l-267 -31 -137 90 c-107 70
-142 99 -155 127 -23 45 -60 60 -108 42 -31 -11 -47 -9 -124 10 -89 23 -90 23
-111 4 -16 -15 -20 -27 -16 -50 10 -49 64 -560 61 -563 -10 -11 -325 226 -325
244 0 21 -37 54 -61 54 -26 0 -238 166 -249 196 -11 28 -48 54 -77 54 -12 0
-37 13 -55 28 -18 15 -71 57 -118 93 -47 36 -138 107 -202 157 -65 51 -126 92
-137 92 -11 0 -25 -10 -32 -21z m362 -326 c72 -57 115 -99 124 -120 11 -25 23
-34 57 -44 36 -11 88 -45 211 -141 33 -25 17 -30 -59 -18 -182 28 -161 15
-271 163 -169 228 -183 247 -178 247 3 0 55 -39 116 -87z m999 -58 c25 -5 41
-17 57 -41 l22 -34 -43 -163 c-24 -89 -47 -177 -51 -195 -4 -18 -8 -32 -10
-30 -2 2 -13 98 -24 213 -12 116 -23 223 -26 239 -4 25 -3 28 18 23 12 -3 38
-9 57 -12z m210 -198 c35 -62 78 -137 96 -167 28 -47 31 -57 19 -70 -26 -28
-34 -66 -24 -104 12 -42 42 -66 84 -66 29 0 38 -10 119 -135 52 -80 86 -141
82 -150 -12 -31 -5 -34 -411 190 l-130 72 3 37 c3 30 -2 42 -25 64 l-29 27 54
200 c29 110 58 205 63 212 19 22 36 3 99 -110z m103 34 l107 -75 0 -84 0 -83
-32 3 c-31 3 -38 12 -120 158 -48 85 -88 159 -88 163 0 10 4 8 133 -82z m449
-146 c-117 -58 -224 -108 -237 -111 l-25 -6 0 86 c0 62 4 86 13 87 6 0 93 11
192 23 303 39 301 42 57 -79z m287 9 c7 -48 11 -88 9 -90 -2 -2 -87 -10 -188
-18 -102 -9 -210 -18 -240 -20 -53 -5 -49 -2 165 104 121 60 225 109 231 109
6 1 16 -35 23 -85z m-1729 11 c52 -9 95 -17 95 -18 1 -1 8 -13 16 -27 15 -23
14 -31 -11 -105 -15 -44 -31 -80 -37 -80 -10 0 -193 237 -193 250 0 3 8 4 18
1 9 -3 60 -12 112 -21z m337 -161 c70 -52 135 -99 143 -104 8 -5 13 -10 10
-13 -7 -6 -379 28 -386 36 -3 3 7 42 22 86 25 68 33 81 54 84 14 2 26 5 27 6
0 0 59 -42 130 -95z m1859 -9 c4 -10 -22 -50 -71 -110 -72 -89 -79 -95 -114
-95 -20 0 -46 -6 -57 -14 -18 -13 -56 -6 -367 71 -191 48 -346 87 -344 89 1 1
151 14 332 29 182 15 368 30 415 34 148 14 200 13 206 -4z m101 -36 c21 10 29
8 54 -14 64 -53 319 -288 317 -291 -3 -2 -47 1 -363 26 -189 15 -187 15 -207
57 -21 44 -20 44 74 161 53 64 61 71 80 61 15 -8 27 -8 45 0z m-1957 -90 c74
-7 141 -15 148 -19 9 -4 -8 -20 -50 -47 -104 -67 -200 -124 -203 -121 -29 36
-145 199 -145 204 0 3 26 3 58 0 31 -3 118 -11 192 -17z m1160 -86 c168 -41
326 -79 353 -85 26 -6 46 -16 44 -21 -3 -10 -419 -146 -446 -147 -8 0 -27 12
-42 26 -18 17 -43 28 -71 31 -43 5 -43 6 -125 133 -46 70 -83 132 -83 138 0
15 4 14 370 -75z m-1064 -87 c-53 -69 -100 -127 -105 -130 -8 -5 -57 60 -63
84 -3 10 253 182 260 175 3 -2 -39 -60 -92 -129z m450 11 c93 -51 208 -115
257 -141 82 -44 87 -49 85 -78 -2 -20 -10 -34 -23 -39 -11 -5 -137 -38 -279
-74 l-259 -64 -33 28 c-18 16 -37 30 -43 32 -6 3 1 72 22 202 30 186 34 200
57 212 14 8 30 14 36 15 6 0 87 -42 180 -93z m-271 41 c-4 -18 -20 -109 -34
-202 l-27 -169 -34 -11 c-62 -20 -101 -113 -68 -165 13 -21 19 -12 -135 -223
-98 -135 -100 -136 -133 -131 -27 5 -38 0 -64 -25 -19 -19 -30 -41 -30 -59 -1
-24 -12 -35 -78 -78 -62 -41 -273 -184 -375 -255 -19 -13 -20 -13 -12 0 22 37
667 937 853 1190 124 168 151 194 137 128z m1790 -103 c256 -19 256 -19 280
-58 15 -23 30 -33 54 -37 31 -4 61 -36 282 -300 136 -162 248 -298 248 -301 1
-6 -826 365 -837 376 -3 3 -7 17 -8 32 -4 39 -44 74 -92 80 -33 4 -49 14 -76
47 -19 22 -62 69 -95 104 -34 35 -61 68 -61 73 0 7 20 8 53 5 28 -4 142 -13
252 -21z m-469 -30 c13 -14 34 -25 49 -25 30 0 30 0 144 -275 77 -185 78 -191
60 -209 -18 -19 -21 -18 -181 58 -90 43 -253 119 -363 170 l-200 93 3 34 c2
19 5 35 6 36 3 3 441 142 450 143 5 0 19 -11 32 -25z m209 -125 c76 -87 87
-104 82 -129 -6 -31 13 -77 42 -101 16 -12 18 -25 14 -72 -5 -51 -8 -58 -27
-58 -18 0 -28 15 -58 88 -152 366 -155 372 -144 372 2 0 43 -45 91 -100z
m-891 -79 c3 -5 -65 -96 -151 -203 l-156 -195 -34 10 c-22 7 -44 7 -66 0 -32
-9 -34 -8 -118 79 -69 71 -83 91 -75 105 5 10 12 31 15 47 l6 29 260 68 c260
67 309 77 319 60z m358 -91 c95 -45 257 -120 360 -168 l188 -87 -2 -37 c-2
-46 25 -87 65 -102 l30 -11 -6 -385 c-4 -212 -7 -427 -7 -477 0 -70 -3 -93
-13 -93 -13 0 -65 89 -560 960 -285 502 -274 480 -243 480 8 0 93 -36 188 -80z
m-271 50 c30 0 27 15 64 -257 l23 -172 -24 -168 c-32 -226 -30 -217 -65 -230
-33 -13 -38 -8 -274 216 l-90 86 11 35 c8 23 8 44 2 65 -6 16 -11 37 -11 45
-1 8 66 99 148 203 122 152 154 186 170 182 11 -3 32 -5 46 -5z m157 -205 c41
-71 183 -321 315 -555 131 -234 268 -473 303 -533 60 -101 77 -147 54 -147
-10 0 -511 334 -657 437 -57 41 -61 46 -53 69 13 32 -10 90 -39 99 -12 3 -21
10 -21 14 0 4 11 84 25 179 14 95 25 196 25 225 0 44 -26 245 -45 352 -7 35
-15 47 93 -140z m1059 71 c317 -145 670 -304 691 -310 59 -19 -7 -26 -247 -26
-245 0 -259 1 -276 20 -11 12 -31 20 -51 20 -30 0 -37 8 -139 162 -114 172
-123 188 -107 188 5 0 63 -24 129 -54z m-105 -162 c59 -87 108 -163 108 -167
0 -12 -35 0 -117 40 -72 35 -73 36 -73 75 0 32 -7 47 -35 75 -34 34 -34 35
-25 85 6 28 10 53 10 55 0 23 42 -29 132 -163z m-1668 -93 c-4 -9 -9 -37 -12
-62 -3 -38 1 -51 23 -77 14 -17 35 -34 45 -37 18 -6 20 -16 20 -118 l0 -113
-44 -13 c-43 -12 -45 -12 -272 74 -273 104 -284 109 -284 136 0 11 -4 28 -10
38 -7 15 13 49 106 177 64 87 119 162 123 166 3 4 22 3 41 -3 28 -9 43 -8 70
4 l35 15 83 -85 c62 -63 81 -89 76 -102z m1766 -154 c0 -27 7 -45 26 -64 l26
-26 -30 -76 c-17 -42 -74 -182 -127 -311 -53 -129 -110 -270 -127 -312 -16
-43 -34 -78 -39 -78 -11 0 -12 370 -2 718 5 181 9 242 18 242 7 0 23 8 36 19
22 18 24 17 120 -28 l98 -46 1 -38z m-1420 -167 c91 -87 163 -160 160 -163 -3
-3 -73 -8 -156 -12 l-152 -7 -13 28 c-8 16 -29 38 -46 49 l-32 20 -1 107 c0
107 0 107 28 122 15 8 32 15 37 15 6 0 84 -71 175 -159z m2150 150 c0 -5 11
-20 25 -32 24 -23 26 -32 55 -368 17 -189 29 -351 28 -359 -2 -9 -65 53 -153
150 -82 90 -152 166 -155 169 -11 11 -316 356 -328 372 -12 15 -12 22 -1 48
l14 30 257 0 c158 0 258 -4 258 -10z m-458 -188 c123 -141 297 -335 435 -486
99 -109 99 -110 86 -138 -8 -15 -20 -28 -26 -28 -42 1 -402 80 -405 89 -8 23
-54 71 -68 71 -8 0 -14 9 -14 20 0 12 -27 143 -60 293 -58 266 -64 297 -56
297 2 0 51 -53 108 -118z m-2352 14 c107 -42 215 -84 240 -94 25 -10 46 -25
48 -33 4 -21 -107 -29 -423 -29 l-243 0 -12 30 c-11 28 -9 35 29 100 36 61 46
70 70 70 16 0 39 9 52 20 13 11 29 18 34 16 6 -2 98 -38 205 -80z m2190 -53
c15 -70 42 -201 60 -290 l32 -162 -21 -29 c-33 -47 -25 -117 18 -149 14 -10
16 -46 19 -252 2 -133 0 -241 -3 -241 -8 0 -263 202 -356 281 -56 48 -56 49
-51 97 3 41 0 52 -22 79 l-26 31 86 208 c47 115 117 289 157 386 39 98 73 175
75 173 2 -2 17 -61 32 -132z m-2545 117 c4 -6 -13 -44 -37 -85 -37 -65 -47
-75 -71 -75 -30 0 -77 -39 -77 -64 0 -8 -4 -17 -8 -20 -13 -8 -276 -65 -280
-61 -3 3 316 226 413 288 46 29 51 31 60 17z m644 -262 c5 -13 7 -26 5 -29 -2
-3 -58 -38 -124 -78 -87 -52 -126 -70 -141 -66 -30 10 -76 -13 -88 -44 -10
-23 -24 -29 -98 -49 l-86 -22 -23 25 c-48 52 -114 41 -142 -26 -17 -38 -24
-44 -109 -80 -84 -34 -93 -36 -98 -20 -3 10 -14 26 -24 35 -18 17 -17 22 61
157 l80 139 38 0 c31 0 43 6 66 33 l27 32 226 5 c471 11 421 13 430 -12z m501
14 c0 -5 -39 -40 -86 -77 -80 -63 -91 -69 -136 -69 -45 -1 -52 2 -75 33 -21
27 -24 37 -14 50 6 9 16 28 22 44 l11 27 139 0 c76 0 139 -4 139 -8z m-1318
-44 c4 -11 -106 -216 -142 -265 -10 -14 -31 -23 -60 -26 l-45 -5 -55 94 c-29
52 -55 105 -57 118 -3 22 2 25 74 41 43 9 112 25 153 35 90 22 127 24 132 8z
m880 -44 c19 -10 42 -14 62 -10 29 6 34 3 54 -33 12 -21 22 -43 22 -49 0 -15
-62 -21 -242 -24 -95 -2 -153 1 -148 6 13 13 203 125 213 126 4 0 22 -7 39
-16z m855 -141 c120 -81 274 -186 343 -233 l125 -85 0 -53 1 -54 -141 -70
c-77 -39 -287 -146 -467 -239 -179 -93 -332 -169 -340 -169 -7 1 -23 9 -36 20
l-23 19 96 418 c133 576 131 567 169 585 17 9 37 14 43 12 7 -2 111 -70 230
-151z m-2048 -48 c44 -72 48 -82 35 -100 -21 -29 -17 -88 7 -118 l20 -27 -28
-35 c-15 -19 -30 -35 -33 -35 -7 0 -70 354 -70 390 0 32 9 22 69 -75z m722
-52 c-17 -21 -98 -108 -180 -193 l-149 -155 48 130 c47 126 49 130 81 137 33
6 69 39 69 63 0 9 106 47 153 54 5 0 -5 -16 -22 -36z m4 -80 c-64 -186 -78
-219 -113 -252 -35 -35 -80 -48 -170 -50 l-34 -1 27 33 c25 30 308 335 312
336 1 1 -9 -29 -22 -66z m-275 22 c10 -12 7 -32 -19 -106 -50 -142 -78 -199
-97 -199 -10 0 -25 -7 -34 -15 -15 -13 -31 -11 -150 25 -73 22 -136 42 -138
45 -3 3 13 26 35 52 31 38 46 47 66 45 41 -5 92 22 110 59 13 29 30 40 104 71
102 42 106 43 123 23z m1114 -341 c-40 -180 -76 -335 -79 -346 -4 -10 -19 -21
-35 -24 -41 -9 -81 -55 -87 -102 l-5 -40 -186 -71 c-102 -38 -188 -69 -190
-67 -6 6 642 976 652 976 2 0 -30 -147 -70 -326z m1975 246 c80 -17 148 -30
153 -30 4 0 8 -7 8 -15 0 -8 14 -30 31 -50 l31 -35 -22 -344 c-12 -188 -25
-376 -29 -417 l-7 -74 -88 180 c-48 99 -151 312 -228 473 l-140 294 17 32 18
33 56 -9 c31 -5 121 -22 200 -38z m-289 -82 c0 -3 66 -143 146 -310 81 -166
175 -361 209 -433 35 -71 61 -132 60 -134 -4 -3 -117 91 -318 264 l-127 110 0
274 c0 244 2 273 15 255 8 -10 15 -22 15 -26z m-692 -130 c7 -10 -28 -85 -127
-274 -75 -143 -174 -337 -221 -431 -75 -152 -88 -171 -110 -172 -14 -1 -37 -8
-52 -15 -26 -14 -31 -12 -110 45 -251 181 -363 269 -359 281 2 7 5 33 7 57 2
42 5 46 45 68 257 135 888 452 900 453 9 0 21 -6 27 -12z m161 -2 c6 -7 103
-87 216 -177 l205 -163 0 -127 0 -127 -35 -35 c-24 -24 -35 -44 -35 -64 l0
-30 -417 -107 c-230 -58 -427 -108 -438 -111 -14 -3 -27 5 -43 25 l-24 30 64
128 c35 70 135 265 223 435 157 301 160 307 191 307 16 0 39 7 50 15 24 18 29
18 43 1z m933 -781 c17 -23 3 -22 -99 6 -60 16 -143 39 -186 50 -63 17 -78 25
-83 44 -3 13 -19 35 -35 51 -28 27 -29 31 -29 126 l0 97 213 -181 c116 -100
215 -187 219 -193z m-2251 191 c15 -13 33 -26 38 -28 6 -2 -19 -137 -62 -333
-66 -299 -75 -330 -94 -333 -17 -3 -48 39 -178 231 -154 230 -157 236 -141
258 9 13 16 36 16 50 0 25 7 30 98 65 53 20 140 54 192 75 52 20 97 38 99 38
2 1 16 -10 32 -23z m384 -176 c197 -147 215 -162 205 -181 -6 -11 -10 -36 -8
-56 l3 -36 -292 -146 -291 -146 -35 23 -35 23 34 157 c78 369 109 495 124 502
8 4 24 12 35 18 11 6 26 9 32 7 7 -2 110 -77 228 -165z m1333 -103 c-4 -40
-20 -161 -34 -270 -24 -171 -29 -197 -43 -192 -31 12 -497 183 -668 245 -163
59 -172 64 -170 88 2 23 10 27 92 48 50 13 245 64 435 112 l345 89 26 -24 c24
-23 25 -27 17 -96z m-2034 -201 l155 -229 -22 -28 -22 -28 -197 0 c-130 -1
-198 3 -198 9 0 12 98 466 106 493 3 10 10 17 15 15 5 -2 78 -106 163 -232z
m1412 -89 c489 -179 524 -192 524 -200 0 -13 -493 4 -510 18 -30 25 -56 26
-102 1 -41 -22 -55 -24 -122 -19 l-75 6 -29 81 c-17 45 -36 100 -43 124 -12
42 -12 44 17 68 20 17 37 23 55 20 15 -3 143 -48 285 -99z m-459 73 c21 -11
43 -20 49 -20 13 0 98 -240 89 -249 -7 -7 -755 -7 -755 0 0 4 566 288 578 289
1 0 19 -9 39 -20z m366 -378 c11 -10 34 -16 56 -15 l38 2 73 -115 c60 -95 70
-117 60 -129 -9 -11 -23 -14 -49 -9 -30 5 -1125 278 -1156 288 -5 2 208 1 475
-2 424 -4 487 -6 503 -20z m-1184 -6 c12 -22 8 -31 -54 -121 -66 -95 -68 -97
-100 -91 -24 5 -55 29 -113 89 -44 45 -92 97 -107 115 l-27 32 194 0 195 0 12
-24z m1719 -54 c-184 -173 -170 -163 -229 -160 l-53 3 -68 110 c-37 61 -68
113 -68 118 0 4 113 7 251 7 l250 0 -83 -78z m-1069 -58 c251 -64 481 -122
511 -129 47 -11 -46 -13 -602 -14 -362 -1 -658 2 -658 7 0 4 31 54 70 111 l69
105 45 1 c29 0 52 7 63 18 10 9 24 17 32 17 8 0 220 -52 470 -116z m726 -243
c-6 -5 -168 -41 -362 -79 l-352 -70 -36 18 c-36 19 -68 15 -100 -9 -5 -5 -149
27 -320 69 l-310 78 745 1 c454 1 740 -3 735 -8z m-1179 -98 c168 -42 301 -80
297 -83 -4 -4 -51 -15 -103 -25 -52 -9 -223 -41 -380 -70 -407 -77 -560 -103
-560 -96 0 4 76 82 169 174 150 150 171 167 194 162 14 -4 34 -2 44 4 10 6 22
11 26 11 5 0 145 -34 313 -77z m1237 43 l29 -23 -23 -112 c-14 -69 -28 -111
-35 -111 -7 0 -25 -10 -40 -23 l-26 -23 -152 37 c-83 20 -231 56 -328 79 -98
24 -178 46 -178 49 0 4 60 19 133 34 72 15 227 47 342 71 116 25 219 44 230
45 11 0 33 -10 48 -23z m274 -168 c152 -152 163 -165 163 -199 0 -28 6 -43 25
-57 23 -19 25 -26 25 -108 0 -49 -3 -99 -6 -111 -7 -24 1 -29 -279 170 l-125
89 0 45 c0 37 -5 50 -30 73 -36 33 -36 34 -9 150 20 88 30 104 68 109 3 1 78
-72 168 -161z m-1172 -8 c23 -26 72 -26 100 0 l21 20 125 -30 c68 -16 221 -54
339 -82 l214 -53 8 -32 c13 -49 86 -80 127 -54 9 6 52 -18 140 -81 69 -49 156
-110 193 -136 37 -26 65 -48 64 -50 -6 -6 -829 175 -1071 236 l-109 27 -7 35
c-21 102 -166 106 -185 5 -5 -27 -13 -36 -38 -44 -103 -34 -1024 -271 -1051
-271 -13 0 -15 19 -15 128 0 116 2 131 20 147 11 10 22 26 25 36 7 21 -1 20
490 110 209 39 423 79 475 89 122 23 114 23 135 0z m-3 -276 c23 -21 93 -22
116 -1 16 14 42 10 317 -53 289 -67 793 -178 831 -182 43 -6 -1831 -13 -2050
-8 l-239 5 154 38 c85 21 303 78 484 126 182 49 339 89 349 90 11 0 28 -6 38
-15z"/>
</g>
</svg>
